# xmcd CD database file
#
# Track frame offsets:
#	150
#	16775
#	30562
#	45217
#	60000
#	75222
#	93120
#	110772
#	127650
#	140400
#
# Disc length: 2073 seconds
#
# Revision: 0
# Processed by: cddbd v1.5.1PL0 Copyright (c) Steve Scherf et al.
# Submitted via: CDex 1.51
#
DISCID=5d08170a
DTITLE=Lee Greenwood - Ring On Her Finger, Time On Her Hands
DYEAR=1985
DGENRE=Country
TTITLE0=Ring on Her Finger, Time on Her Hands
TTITLE1=I Don't Want To Be A Memory
TTITLE2=I Don't Want To Wake You
TTITLE3=Love Me Like I'm Leaving Tonight
TTITLE4=Going, Going, Gone
TTITLE5=Love Will Find Its Way to You
TTITLE6=Gonna Leave The Light On
TTITLE7=Someone Who Remembers
TTITLE8=Let's Make the Most of Love
TTITLE9=Broken Pieces of My Heart
EXTD=YEAR: 1985
EXTT0=
EXTT1=
EXTT2=
EXTT3=
EXTT4=
EXTT5=
EXTT6=
EXTT7=
EXTT8=
EXTT9=
PLAYORDER=
